# xmcd
#
# Track frame offsets: 
#        150
#        14680
#        27557
#        41210
#        51450
#        64237
#        75587
#        84885
#        98195
#        109477
#        124652
#        134982
#        146977
#        160097
#        172227
#        183530
#        195010
#        204360
#        216780
#        240050
#        253037
#        266287
#        278667
#        296242
#        307762
#        319575
#        332932
#
# Disc length: 4633 seconds
#
# Revision: 2
# Processed by: cddbd v1.4PL0 Copyright (c) Steve Scherf et al.
# Submitted via: ExactAudioCopy v0.90b3
#
DISCID=9612171b
DTITLE=Waylon Jennings - The Journey: Six Strings Away - Disc 1
DYEAR=1900
DGENRE=Country
TTITLE0=Folsom Prison Blues (1968)
TTITLE1=Today I Started Loving You Again (1968)
TTITLE2=If You Were Mine To Lose (1968)
TTITLE3=Six Strings Away (1968)
TTITLE4=Cedartown Georgia (1971)
TTITLE5=I Lost Me (1969)
TTITLE6=Brown Eyed Handsome Man (1970)
TTITLE7=Alone (1969)
TTITLE8=Something's Wrong In California (1969)
TTITLE9=The Days Of Sand And Shovels (1969)
TTITLE10=Just To Satisfy You (1970)
TTITLE11=For The Kids (1969)
TTITLE12=Farewell Party (1969)
TTITLE13=Sing The Blues To Daddy (& Bobby Bare) (1969)
TTITLE14=Change My Mind (1969)
TTITLE15=Lonely Weekends (1969)
TTITLE16=A World Of Our Own (1969)
TTITLE17=Come Stay With Me (1969)
TTITLE18=MacArthur Park (1969)
TTITLE19=Long Way Back Home (1960)
TTITLE20=These New Changing Times (1969)
TTITLE21=Cindy, Oh Cindy (1969)
TTITLE22=Mary Ann Regrets (1969)
TTITLE23=But You Know I Love You (1969)
TTITLE24=Drivin' Nails In The Wall (1969)
TTITLE25=Let Me Tell You My Mind (1969)
TTITLE26=Games People Play (1969)
EXTD=
EXTT0=
EXTT1=
EXTT2=
EXTT3=
EXTT4=
EXTT5=
EXTT6=
EXTT7=
EXTT8=
EXTT9=
EXTT10=
EXTT11=
EXTT12=
EXTT13=
EXTT14=
EXTT15=
EXTT16=
EXTT17=
EXTT18=
EXTT19=
EXTT20=
EXTT21=
EXTT22=
EXTT23=
EXTT24=
EXTT25=
EXTT26=
PLAYORDER=
